<?xml version="1.0" standalone="no"?><!DOCTYPE svg PUBLIC "-//W3C//DTD SVG 1.1//EN" "http://www.w3.org/Graphics/SVG/1.1/DTD/svg11.dtd"><svg t="1579939148113" class="icon" viewBox="0 0 1024 1024" version="1.1" xmlns="http://www.w3.org/2000/svg" p-id="1550" xmlns:xlink="http://www.w3.org/1999/xlink" width="200" height="200"><defs><style type="text/css"></style></defs><path d="M588.288 144.64s160.64 22.144 263.488 169.408c0 0 137.856 185.152-45.632 378.88 0 0-24.384 21.312-17.92 56.448l24.32 118.272-159.616-62.4s-29.568-14.144-53.248-1.024c0 0-151.296 46.144-334.784-52.352 0 0-231.552-121.28-151.552-375.872 0 0 93.952-286.656 474.944-231.36z" fill="#14FF8E" p-id="1551"></path><path d="M833.088 730.752c69.312-83.392 113.6-150.528 113.6-254.976 0-70.272-23.04-135.552-61.632-192.064l-0.448-0.704c-0.896-1.28-1.472-2.688-2.368-3.968l-0.192 0.128a21.888 21.888 0 0 0-17.664-9.28 22.4 22.4 0 0 0-22.4 22.4c0 5.76 2.304 10.944 5.952 14.912l-0.448 0.32c34.048 49.664 54.4 106.816 54.4 168.192 0 86.784-33.344 142.144-103.232 226.368-17.728 21.44-12.928 42.88 1.408 106.432 3.584 15.744 8.832 38.976 12.48 59.072a2067.072 2067.072 0 0 1-97.088-37.824c-61.376-25.152-75.968-30.528-90.624-30.528h-6.08l-6.848 1.728c-40.768 11.136-63.04 13.888-113.216 13.888-222.336 0-403.2-152.128-403.2-339.136s180.864-339.2 403.2-339.2c27.712 0 54.784 2.368 81.024 6.848l0.192-0.512a20.736 20.736 0 0 0 8.384 1.792 22.464 22.464 0 0 0 22.464-22.4 22.08 22.08 0 0 0-16.704-21.248l0.128-0.256c-1.664-0.32-3.456-0.448-5.056-0.704-0.32 0-0.512-0.192-0.832-0.192H588.16a518.592 518.592 0 0 0-89.472-8.064c-247.424 0-448 171.968-448 384 0 212.096 200.576 384 448 384 51.712 0 78.656-2.816 125.248-15.552 13.44-3.776 214.08 93.952 233.088 75.968 19.712-18.816-32.896-178.624-23.936-189.44z" fill="" p-id="1552"></path><path d="M672 169.92a408.512 408.512 0 0 1 130.048 83.328l0.256-0.192a21.76 21.76 0 0 0 17.28 8.704 22.464 22.464 0 0 0 22.464-22.4 21.952 21.952 0 0 0-8.448-17.088l0.448-0.384a451.584 451.584 0 0 0-144-92.736l-1.344-0.576c-0.832-0.256-1.472-0.704-2.24-1.024L686.272 128c-1.856-0.512-3.712-1.152-5.696-1.152a22.4 22.4 0 0 0-8.576 43.072z" fill="" p-id="1553"></path><path d="M172.352 434.432a22.464 22.464 0 0 1-20.992-30.208C220.992 217.6 387.2 194.752 394.24 193.92a22.4 22.4 0 0 1 24.96 19.392 22.528 22.528 0 0 1-19.328 25.088c-6.016 0.704-146.688 20.992-206.528 181.44a22.4 22.4 0 0 1-20.992 14.592z" fill="#FFFFFF" p-id="1554"></path><path d="M158.976 478.4m-22.4 0a22.4 22.4 0 1 0 44.8 0 22.4 22.4 0 1 0-44.8 0Z" fill="#FFFFFF" p-id="1555"></path><path d="M333.056 539.2a67.264 67.264 0 0 1 0-134.4 67.264 67.264 0 0 1 0 134.4z m0-89.6a22.4 22.4 0 1 0 0 44.8 22.4 22.4 0 0 0 0-44.8zM504.448 539.2a67.264 67.264 0 0 1 0-134.4c37.12 0 67.264 30.144 67.264 67.2 0 37.056-30.208 67.2-67.264 67.2z m0-89.6a22.4 22.4 0 1 0 0 44.8 22.4 22.4 0 0 0 0-44.8zM676.032 539.2c-37.12 0-67.264-30.144-67.264-67.2a67.2 67.2 0 1 1 67.264 67.2z m0-89.6c-12.352 0-22.528 10.048-22.528 22.4a22.464 22.464 0 0 0 44.928 0 22.464 22.464 0 0 0-22.4-22.4z" fill="" p-id="1556"></path></svg>