<?xml version="1.0" standalone="no"?><!DOCTYPE svg PUBLIC "-//W3C//DTD SVG 1.1//EN" "http://www.w3.org/Graphics/SVG/1.1/DTD/svg11.dtd"><svg t="1578879469857" class="icon" viewBox="0 0 1024 1024" version="1.1" xmlns="http://www.w3.org/2000/svg" p-id="1274" data-spm-anchor-id="a313x.7781069.0.i2" xmlns:xlink="http://www.w3.org/1999/xlink" width="200" height="200"><defs><style type="text/css"></style></defs><path d="M1011.541 401.886c59.995 266.135-108.34 530.793-375.988 591.129C367.9 1053.354 102.295 886.52 42.299 620.383c-59.994-266.135 116.143-532.552 375.99-591.13 267.649-60.337 533.256 106.497 593.252 372.633z" fill="#ffffff" p-id="1275" data-spm-anchor-id="a313x.7781069.0.i0" class="selected"></path><path d="M1011.541 401.886c7.166 31.608 11.256 63.912 12.244 96.322 0.456 16.206 0.199 32.44-0.896 48.627a512.974 512.974 0 0 1-5.604 48.352c-10.573 64.098-33.711 126.213-67.727 182.021-33.984 55.816-78.813 105.383-131.766 144.824-26.482 19.691-54.896 36.977-84.859 51.271a517.404 517.404 0 0 1-93.674 34.154c-32.303 8.365-65.529 13.684-99.07 15.666-33.537 1.947-67.384 0.668-100.845-4.059-33.449-4.752-66.552-12.719-98.568-24.033a505.598 505.598 0 0 1-47.163-19.316 506.037 506.037 0 0 1-45.1-23.963c-58.568-34.918-110.292-81.869-150.688-137.4-20.227-27.736-37.597-57.602-51.791-88.912a516.201 516.201 0 0 1-18.867-47.969 526.004 526.004 0 0 1-13.922-49.605C5.633 594.311 1.416 559.932 0.887 525.508c-0.305-17.21 0.329-34.43 1.84-51.559a491.97 491.97 0 0 1 7.14-51.029c12.968-67.471 39.819-131.867 77.651-188.508a524.248 524.248 0 0 1 64.469-78.82c23.908-24.076 50.201-45.676 78.216-64.563 28.015-18.899 57.916-34.858 88.979-47.746a497.169 497.169 0 0 1 96.261-28.829c65.497-12.632 133.217-12.4 197.936 0.62 64.767 12.917 126.523 38.492 181.168 74.342 54.668 35.835 102.211 82.027 139.256 135.395a512.616 512.616 0 0 1 25.803 41.274c7.936 14.152 15.129 28.708 21.671 43.542 6.533 14.841 12.278 30.018 17.349 45.41a498.744 498.744 0 0 1 12.915 46.849z m0 0a498.252 498.252 0 0 0-13.055-46.804c-5.109-15.376-11.059-30.468-17.697-45.239-6.629-14.777-14.083-29.178-22.197-43.181-8.105-14.011-16.959-27.579-26.467-40.66-37.99-52.372-86.719-96.688-141.928-129.647a476.545 476.545 0 0 0-42.515-22.613 476.634 476.634 0 0 0-44.457-18.223c-30.173-10.688-61.374-18.176-92.883-22.652-31.521-4.46-63.397-5.645-94.983-3.805-31.606 1.881-62.855 6.891-93.383 14.805-30.343 7.868-59.875 18.854-87.902 32.56-28.064 13.675-54.611 30.211-79.358 48.96-49.464 37.58-91.366 84.489-123.364 137.041-32.017 52.55-54.087 110.828-64.377 170.926a479.143 479.143 0 0 0-5.523 45.328 473.003 473.003 0 0 0-1.059 45.584c0.809 30.383 4.582 60.662 11.344 90.309a466.328 466.328 0 0 0 12.207 44.004c4.756 14.461 10.192 28.693 16.34 42.617 12.244 27.871 27.235 54.539 44.644 79.576 34.823 50.076 79.521 93.473 130.952 127.152 51.405 33.699 109.508 57.754 170.431 69.893 60.896 12.238 124.542 12.484 186.37 0.564 30.91-5.945 61.346-14.842 90.688-26.719 29.324-11.902 57.62-26.648 84.17-44.227 26.547-17.566 51.51-37.736 74.178-60.344a481.432 481.432 0 0 0 61.026-74.229c35.718-53.473 60.706-114.418 72.542-178.027a466.064 466.064 0 0 0 6.456-48.086c1.322-16.131 1.872-32.336 1.52-48.529-0.343-16.19-1.442-32.375-3.428-48.456a498.915 498.915 0 0 0-8.292-47.878z" fill="#ffffff" p-id="1276" data-spm-anchor-id="a313x.7781069.0.i1" class=""></path><path d="M445.674 282.991c-4.168 10.243-30.459 32.888-55.333 58-69.333 70-49.469 55.652-56.505-4-2.398-20.333-18.828-27.667 19.172-43.333 34.765-14.333 93.999-13.945 92.666-10.667zM657.313 283.991c0.023 11.814 30.459 32.888 55.332 58 69.334 70 49.469 55.652 56.506-4 2.398-20.333 12.523-27-19.172-43.333-29.042-14.966-92.67-12.64-92.666-10.667z" fill="#D0B5A4" p-id="1277"></path><path d="M771.614 469.51c-2.83 18.53-48.74-68.52-89.69-68.52-12.42 0-42.81 46.05-47.32 41.57-24.18-24.07-41.6-21.82-65.93-30.24-9.45-3.271 5-61.66-13.33-63.33-8.21-0.75-13.01 2.63-15.79 8.19-1.45 2.92-2.34 6.439-2.88 10.279-2.67 19.141 3.55 46.2-6.33 46.2-15.1 0-25.51 4.99-34.11 10.54-7.38 4.78-13.44 9.96-20.01 12.79-0.01 0.01-0.02 0.02-0.03 0.02-2.33 1-4.73 1.7-7.27 1.98-23.9 2.64-33.66-33.54-45.92-36.33-33.32-7.61-55.97 24.95-83 57.6-9.24 11.171-9.87 3.41-9.21-9.359v-0.07c0.24-4.68 0.65-10.03 0.88-15.37v-0.04c0.1-2.279 0.16-4.54 0.16-6.76 0-15.939 4.06-38.05 9.29-43.46 28.96-29.89 57.12-55.229 98.86-97l0.03-0.03c17.66-17.68 66.29-25.1 79.66-9.06 17.23 20.68 18.62 25.55 34.67 25.55 18.01 0 27.33-35.53 58.08-35.45 17.53 0.05 33.2 5.41 45.89 15.78 0.521 0.43 1.061 0.87 1.61 1.34l0.01 0.01c26.3 21.771 79.07 71.98 99.41 94.65 1.04 1.16 2.04 2.65 2.98 4.42 1.72 3.23 3.27 7.38 4.619 12.17v0.01c5.661 20.08 7.821 51.271 4.671 71.92z" fill="#E8CDB8" p-id="1278"></path><path d="M728.304 758.76c-13.93 13.521-28.689 23.311-39.63 23.311-5.25 0-13.62-7.65-23.46-19.469-1.87-2.25-3.8-4.641-5.76-7.17-0.61-0.781-1.23-1.57-1.84-2.381-0.021-0.02-0.03-0.041-0.051-0.061-0.479-0.629-0.96-1.26-1.439-1.9a514.785 514.785 0 0 1-9.79-13.398c-1.021-1.451-2.05-2.91-3.08-4.391-0.63-0.9-1.25-1.801-1.88-2.711-1.67-2.398-3.33-4.84-5-7.299-0.76-1.121-1.521-2.25-2.28-3.381-1.32-1.969-2.64-3.949-3.96-5.939-0.82-1.23-1.63-2.461-2.44-3.689-1.84-2.801-3.68-5.611-5.5-8.41-0.609-0.93-1.21-1.871-1.81-2.801-2.03-3.15-4.04-6.27-6-9.35-0.78-1.221-1.55-2.42-2.31-3.619-0.16-0.25-0.32-0.49-0.471-0.74-0.42-0.65-0.84-1.311-1.25-1.961-0.149-0.24-0.3-0.469-0.449-0.699-0.381-0.59-0.75-1.18-1.12-1.76-0.03-0.061-0.07-0.121-0.101-0.17-1.12-1.762-2.22-3.49-3.279-5.191-1.44-2.26-2.83-4.469-4.19-6.629-0.68-1.07-1.35-2.131-2-3.17-2.62-4.16-5.06-8.041-7.29-11.541-5.93-9.34-10.29-16.02-12.25-18.25-14-16-27.24-26.5-52.57-2-2.649 2.561-6.21 6.99-10.33 12.641-0.439 0.609-0.89 1.23-1.35 1.869-0.46 0.631-0.92 1.281-1.38 1.941-1.25 1.76-2.53 3.609-3.851 5.529-0.54 0.779-1.08 1.57-1.62 2.381a774.453 774.453 0 0 0-8.92 13.488c-0.56 0.852-1.12 1.711-1.67 2.57-1.88 2.91-3.77 5.871-5.65 8.85-0.63 0.99-1.26 1.99-1.89 2.98-1.29 2.051-2.58 4.1-3.86 6.15-0.58 0.91-1.15 1.83-1.71 2.74-0.35 0.561-0.7 1.119-1.04 1.68l-1.04 1.67c-0.93 1.5-1.85 2.99-2.76 4.461-0.1 0.16-0.19 0.318-0.29 0.479-0.34 0.551-0.67 1.08-1 1.621-1.08 1.75-2.14 3.48-3.18 5.17-0.36 0.59-0.72 1.18-1.08 1.76-0.2 0.33-0.4 0.65-0.6 0.98-0.56 0.93-1.12 1.84-1.67 2.74-0.63 1.029-1.24 2.039-1.85 3.039-0.46 0.76-0.91 1.5-1.35 2.23-2.32 3.799-4.4 7.24-6.17 10.17a368.42 368.42 0 0 0-1.72 2.83c-0.95 1.561-1.77 2.92-2.45 4.029-6.48 10.58-12.96 20.66-19.51 28.51-8.63 10.32-17.4 16.771-26.49 15.381-9.42-1.439-25.8-9.57-40.88-22.77-19.5-17.07-36.82-42.602-34.12-73.121 0.98-11.119 10.51-31.129 25.21-55.01 26.66-43.32 70.32-99.4 110.82-138.339 28.18-27.101 54.82-45.92 73.14-46.381 10.92-0.27 20.64 0.94 29.44 3.381 0.02 0 0.029 0.01 0.04 0.01 34.319 9.52 54.779 37.67 78.59 69.08 5.95 7.85 12.12 15.91 18.76 23.93 24.01 28.98 48.43 60.141 67.45 90.031 11.81 18.529 21.53 36.568 27.81 53.299 5.371 14.311-16.37 49.211-40.629 72.77z" fill="#604F4C" p-id="1279"></path><path d="M632.344 502.321c0 10-12.18 25-25.17 26.169-25.36 2.281-1.5-38.83-25.17-38.83-13.16 0-8.43 35.14-9 47.33-1 21.5-9.72 23.451-20.65 22.98-41.85-1.811-6.68-69.15-31.01-69.65-16.71-0.34-7.96 36.589-15.34 37-17.66 1-35.26-15.18-33.33-30.33 0.18-1.44 0.53-2.89 1.03-4.35 7.61-22.511 50.43-47.521 78.47-47.98 7.38-0.12 15.7 1.75 24.11 4.98 0.02 0 0.029 0.01 0.04 0.01 27.51 10.56 56.02 35.581 56.02 52.671zM591.924 654.24c-29.75-18.189-58.73-13.189-75.15-7.609 4.12-5.65 7.681-10.08 10.33-12.641 25.33-24.5 38.57-14 52.57 2 1.96 2.231 6.32 8.91 12.25 18.25z" fill="#070001" p-id="1280"></path><path d="M665.214 762.602c-0.39 18.77-16.23 24.119-23.54 28.059-8.67 4.66-36.67-0.67-46.67-3.34-10-2.66-30.66-12-58.66-8s-38 11.34-63.82 11.34c-16.13 0-27.27-13.799-33.36-24.16 6.55-7.85 13.03-17.93 19.51-28.51 8.52-13.93 39.2-65.439 58.1-91.359 16.42-5.58 45.4-10.58 75.15 7.609 17.8 28.03 49.75 80.099 73.29 108.361z" fill="#443634" p-id="1281"></path><path d="M400.674 517.84c-14.54 17.631-27.55 33.99-34.15 44.361-0.03 0.049-0.06 0.1-0.1 0.15-3.01 4.68-6.63 7.92-10.64 9.979-14.88 7.641-35.17-0.979-49.67-12.949-4.64-3.82-8.68-7.98-11.77-12.061-2.39-3.15-3.23-7.389-2.78-12.43 1.45-16.48 16.57-41.62 35.81-66.15 3.03-3.86 6.17-7.72 9.37-11.52a478.344 478.344 0 0 1 15.47-17.431c0.01-0.01 0.02-0.02 0.02-0.03 23.01-24.609 46.27-43.93 57.3-45.789 0.2-0.04 0.4-0.07 0.6-0.091 0.12-0.02 0.23-0.029 0.34-0.04h0.01c9.62-0.79 17.74 3.54 24.73 9.61 8.93 7.73 16.02 18.271 22.08 24.57l0.01 0.01c3.35 3.46 6.38 5.64 9.23 5.35h0.01c6.76-0.638-33.37 45.072-65.87 84.461zM813.714 539.41c-0.26 3.09-1.18 5.75-2.81 7.91-3.82 5.041-9.091 10.211-15.131 14.701-13.59 10.1-31.06 16.809-44.609 11.109a24.955 24.955 0 0 1-3.88-2.061s0-0.01-0.011-0.01c-3.189-2.07-6.08-4.971-8.55-8.859-6.7-10.531-20.01-27.23-34.819-45.17-28.421-34.411-62.351-73.34-65.69-81.92-0.05-0.13-0.09-0.25-0.13-0.37-0.311-0.96-0.12-1.44 0.62-1.36 0.609 0.061 1.22 0.011 1.85-0.14h0.01c11.24-2.75 25.53-38 50.38-39.44 1.25-0.079 2.53-0.069 3.83 0.04 13.641 1.12 49.42 33.49 78.21 68.801 0.091 0.1 0.171 0.199 0.24 0.3 23.32 28.64 41.99 59.17 40.49 76.469z" fill="#E6DFD5" p-id="1282"></path><path d="M400.674 517.84c-11.61 20.191-34.05 52.762-40.06 54.4-1.39 0.381-3.02 0.4-4.83 0.09-8.07-1.439-19.63-9.809-28.25-24.869-3.1-5.41-5.82-11.68-7.86-18.801-1.09-3.809 2.32-10.869 8.04-19.059 15-21.5 45.91-50.75 52.96-49.11 15.2 3.54 19.68 21.26 26.58 40.68l0.42 1.17c0.51 1.409-2.39 7.48-7 15.499zM785.974 529.74c-1.76 6.131-4.02 11.641-6.59 16.5-8.29 15.68-19.82 24.73-28.22 26.891-0.88 0.221-1.73 0.369-2.53 0.449-1.32 0.121-2.53 0.041-3.59-0.25-6.21-1.699-29.9-36.32-41.14-56.299-3.98-7.06-6.4-12.3-5.931-13.6 0.08-0.221 0.16-0.44 0.23-0.66 7.01-19.62 11.439-37.63 26.77-41.2 6.95-1.61 37.07 26.77 52.3 48.17 6.121 8.589 9.831 16.05 8.701 19.999z" fill="#5A4B47" p-id="1283"></path><path d="M734 530.992c-0.035 7.332 18.162 19 31.334 19 13.17 0 23.848-8.242 23.848-21.676s-10.678-20.992-23.848-20.992c-13.172 0.001-31.311 18.989-31.334 23.668zM370.674 530.992c0.036 7.332-18.162 19-31.333 19s-23.848-8.242-23.848-21.676 10.677-20.992 23.848-20.992 31.31 18.989 31.333 23.668z" fill="#070001" p-id="1284"></path><path d="M756.464 596.66c0 6.08-0.79 11.531-2.31 16.41l-99.24-94.34c-23.811-31.41-44.271-59.56-78.59-69.08-0.011 0-0.021-0.01-0.04-0.01-8.41-3.23-16.73-5.101-24.11-4.98-28.04 0.46-70.86 25.47-78.47 47.98-40.5 38.939-84.16 95.019-110.82 138.339-11.18-8.439-16.59-19.959-14.48-35.66 0.14-0.99 4.49-9.699 12.21-23.08 1.76-3.059 3.71-6.369 5.81-9.889 0.04-0.051 0.07-0.102 0.1-0.15 10.14-16.92 24.1-38.611 40.73-61.031 17.31-23.35 37.51-47.479 59.28-67.79h0.01c0.81-0.77 1.63-1.52 2.45-2.27 3.04-2.78 6.1-5.49 9.2-8.101 0.01 0 0.02-0.01 0.03-0.02 6.57-2.83 12.63-8.01 20.01-12.79 12.51-5.7 25.29-7.66 38.65-8.33 0.6-0.03 1.19-0.06 1.79-0.08v9.2c0 6.63 5.37 12 12 12h3c6.63 0 12-5.37 12-12v-9.29c0.95 0.05 1.9 0.11 2.86 0.18 21.54 1.561 45.859 8.561 63.81 27.11 1.8 1.86 3.66 3.8 5.561 5.8 0.109 0.11 0.21 0.21 0.31 0.32 17.72 18.62 39.76 43.07 59.99 67.66 20.189 24.53 38.569 49.17 49.069 68.29a0.01 0.01 0 0 1 0.011 0.01c0.47 0.85 0.92 1.68 1.35 2.51 4.959 9.422 7.829 17.363 7.829 23.082z" fill="#9A887B" p-id="1285"></path><path d="M565.674 350.991v60c0 6.63-5.37 12-12 12h-3c-6.63 0-12-5.37-12-12v-57.53c0.54-3.84 1.43-7.359 2.88-10.279 2.21-2.561 5.47-4.19 9.12-4.19h3c6.63-0.001 12 5.369 12 11.999z" fill="#5E4B49" p-id="1286"></path><path d="M754.154 613.07c-0.061 0.189-0.12 0.381-0.19 0.57-2.5 7.699-6.86 13.961-12.84 19.051-19.021-29.891-43.44-61.051-67.45-90.031-6.64-8.02-12.81-16.08-18.76-23.93l94.88 90.189s0.02 0.021 0.05 0.061l4.31 4.09z" fill="#938073" p-id="1287"></path><path d="M901.424 510.131c-22.58 35.109 1.17 82.359-12.66 105.529-1.689 2.84-15.8-7.32-33.95-25.479-13.29-13.291-28.75-30.861-43.1-50.771-16.8-23.289-32.08-49.769-40.58-76.29-0.05-0.16-0.11-0.32-0.15-0.479-4.35-13.69-6.89-27.381-6.89-40.65 0-14.73-0.11-28.47-0.15-41.15 0-2.06-0.01-4.09-0.01-6.1-0.029-35.29 0.811-61.86 6.87-78.2 4.58-12.37 12.16-18.88 24.62-18.88 12.27 0 34.17 32.33 60.17 79.83 17.12 31.28 53.4 54.34 78.5 89.56 14.78 20.74-16.58 38.079-32.67 63.08zM338.764 393.811c-0.04 8.64-0.09 17.699-0.09 27.18 0 9.99-1.44 20.23-4.01 30.52-1.43 5.74-3.21 11.49-5.29 17.23-8.32 22.96-21.39 45.691-35.81 66.15-15.28 21.689-32.07 40.82-46.28 54.961-17.83 17.738-31.61 27.609-33.28 24.809-13.83-23.17 9.92-70.42-12.66-105.53-16.09-25-47.45-42.34-32.67-63.08 25.1-35.22 61.38-58.279 78.5-89.56 26-47.5 47.9-79.83 60.17-79.83 31.92 0 31.79 42.719 31.42 117.15z" fill="#655351" p-id="1288"></path><path d="M371.794 759.111c-24.07-2.4-52.8-27.91-59.45-31.791-8-4.66-26.67-21.33-36-68-2.57-12.83-1-26.869 2.62-40.48 6.44-24.25 19.41-47.148 27.15-59.459 14.5 11.971 34.79 20.59 49.67 12.949 1.81 0.311 3.44 0.291 4.83-0.09-7.72 13.381-12.07 22.09-12.21 23.08-2.11 15.701 3.3 27.221 14.48 35.66-14.7 23.881-24.23 43.891-25.21 55.01-2.7 30.52 14.62 56.051 34.12 73.121z" fill="#E9D0BC" p-id="1289"></path><path d="M823.804 684.891c-4.8 17.041-11.38 28.641-15.46 32.109-6.67 5.66-36.15 30.99-42.41 32.32-4.33 0.93-23.55 6.93-37.63 9.439 24.26-23.559 46-58.459 40.63-72.77-6.279-16.73-16-34.77-27.81-53.299 5.979-5.09 10.34-11.352 12.84-19.051 12.4 13.951 49.45 55.043 69.84 71.252z" fill="#CEBBAD" p-id="1290"></path><path d="M829.674 646.66c-0.51 14.471-2.83 27.441-5.87 38.23-20.39-16.209-57.439-57.301-69.84-71.25 0.07-0.189 0.13-0.381 0.19-0.57 1.52-4.879 2.31-10.33 2.31-16.41 0-5.719-2.87-13.66-7.83-23.08 0.8-0.08 1.65-0.229 2.53-0.449 13.55 5.699 31.02-1.01 44.609-11.109 5.03 7.129 22.03 32.34 29.881 58.34 2.7 8.909 4.32 17.898 4.02 26.298z" fill="#ECD7C6" p-id="1291"></path><path d="M856.813 590.182c-8.949 11.818-29.81 23.969-29.81 23.969l-1.35 6.211c-7.851-26-24.851-51.211-29.881-58.34 6.04-4.49 11.311-9.66 15.131-14.701 1.63-2.16 2.55-4.82 2.81-7.91 14.35 19.909 29.81 37.48 43.1 50.771z" fill="#D3BCAF" p-id="1292"></path><path d="M306.114 559.381c-7.74 12.311-20.71 35.209-27.15 59.459-8.36-6.379-23.36-18.279-33.68-28.988 14.21-14.141 31-33.271 46.28-54.961-0.45 5.041 0.39 9.279 2.78 12.43 3.09 4.079 7.13 8.24 11.77 12.06z" fill="#CBAF9D" p-id="1293"></path></svg>