<?xml version="1.0" standalone="no"?><!DOCTYPE svg PUBLIC "-//W3C//DTD SVG 1.1//EN" "http://www.w3.org/Graphics/SVG/1.1/DTD/svg11.dtd"><svg t="1579939058208" class="icon" viewBox="0 0 1024 1024" version="1.1" xmlns="http://www.w3.org/2000/svg" p-id="1069" width="200" height="200" xmlns:xlink="http://www.w3.org/1999/xlink"><defs><style type="text/css"></style></defs><path d="M558.016 543.104m-122.56 0a122.56 122.56 0 1 0 245.12 0 122.56 122.56 0 1 0-245.12 0Z" fill="#4589DB" p-id="1070"></path><path d="M577.664 482.112a14.4 14.4 0 0 0 14.4-14.4c0-7.104-5.44-12.288-12.16-13.504l0.064-0.384h-0.96c-0.512 0-0.832-0.512-1.344-0.512-0.576 0-0.96 0.576-1.472 0.64a101.504 101.504 0 0 0-66.496 15.424c-14.272 9.344-25.088 21.76-32.896 35.648l1.152 0.576c-0.896 1.92-2.368 3.52-2.368 5.76 0 8 6.464 14.4 14.4 14.4 5.184 0 8.896-3.136 11.392-7.232h0.064v0.192c5.632-9.984 13.44-18.88 23.808-25.728 16.192-10.624 34.816-13.568 52.544-10.624l-0.704-0.448v-0.064c0.256 0 0.32 0.256 0.576 0.256z" fill="#FFFFFF" p-id="1071"></path><path d="M558.016 711.104a168 168 0 0 0 0-336c-52.48 0-98.496 24.896-129.28 62.656a22.656 22.656 0 0 0-8.256 9.28l-0.064 0.064a23.168 23.168 0 0 0 21.184 32.96 23.04 23.04 0 0 0 19.648-11.456l0.576 0.32a121.28 121.28 0 0 1 96.192-47.808 121.856 121.856 0 1 1-121.92 121.92c0-3.008 0.704-5.824 0.896-8.832l-0.832-0.32c0-0.448 0.256-0.832 0.256-1.28a23.04 23.04 0 1 0-46.08 0c0 0.832 0.384 1.536 0.448 2.368-0.32 2.688-0.768 5.312-0.768 8.128a168 168 0 0 0 168 168z" fill="" p-id="1072"></path><path d="M580.544 268.736C315.456 268.736 32 542.976 32 542.976s283.456 274.432 548.544 274.432c45.824 0 87.488-7.296 125.952-18.624l-0.128-0.32a22.528 22.528 0 1 0-13.44-41.92v-0.064a402.944 402.944 0 0 1-112.384 16.128c-191.104 0-399.232-159.616-481.344-229.632 82.048-69.952 290.176-229.44 481.344-229.44 243.584 0 366.656 190.656 366.656 229.44-1.408 11.584-19.2 45.376-52.032 83.392a22.4 22.4 0 0 0-9.216 17.792c0 12.544 10.176 22.72 22.72 22.72a22.4 22.4 0 0 0 17.792-9.216c42.688-48.32 65.536-94.272 65.536-114.688 0-67.456-146.304-274.24-411.456-274.24z" fill="" p-id="1073"></path><path d="M857.792 673.216a21.824 21.824 0 0 0-12.928 4.544l-0.128-0.192-43.904 31.808c-17.408 12.672-45.184 26.048-45.184 26.048l0.448 0.64a21.888 21.888 0 0 0-9.088 17.472c0 12.352 9.984 22.4 22.4 22.4 3.968 0 7.424-1.28 10.624-3.072l0.384 0.64s21.12-11.264 42.176-23.808c30.72-18.368 49.344-36.48 49.344-36.48l-0.384-0.448a21.952 21.952 0 0 0 8.576-17.216 22.208 22.208 0 0 0-22.336-22.336z" fill="" p-id="1074"></path></svg>