<?xml version="1.0" standalone="no"?><!DOCTYPE svg PUBLIC "-//W3C//DTD SVG 1.1//EN" "http://www.w3.org/Graphics/SVG/1.1/DTD/svg11.dtd"><svg t="1585377385570" class="icon" viewBox="0 0 1024 1024" version="1.1" xmlns="http://www.w3.org/2000/svg" p-id="20339" xmlns:xlink="http://www.w3.org/1999/xlink" width="64" height="64"><defs><style type="text/css"></style></defs><path d="M0 0l0 384 384 0 0-384-384 0zm512 0l0 128 512 0 0-128-512 0zm0 256l0 128 384 0 0-128-384 0zm-512 256l0 384 384 0 0-384-384 0zm512 0l0 128 512 0 0-128-512 0zm0 256l0 128 384 0 0-128-384 0z" p-id="20340"></path></svg>