<?xml version="1.0" standalone="no"?><!DOCTYPE svg PUBLIC "-//W3C//DTD SVG 1.1//EN" "http://www.w3.org/Graphics/SVG/1.1/DTD/svg11.dtd"><svg t="1585377804874" class="icon" viewBox="0 0 1024 1024" version="1.1" xmlns="http://www.w3.org/2000/svg" p-id="1042" xmlns:xlink="http://www.w3.org/1999/xlink" width="64" height="64"><defs><style type="text/css"></style></defs><path d="M635.477333 177.92a42.666667 42.666667 0 0 1 4.522667 19.114667v629.930666a42.666667 42.666667 0 0 1-61.738667 38.144L298.666667 725.333333V298.666667l279.594666-139.776a42.666667 42.666667 0 0 1 57.216 19.072zM256 298.666667v426.666666H128a42.666667 42.666667 0 0 1-42.666667-42.666666V341.333333a42.666667 42.666667 0 0 1 42.666667-42.666666h128z m503.594667 80.597333l72.448 72.362667 72.362666-72.362667a25.6 25.6 0 0 1 36.224 0l24.106667 24.106667a25.6 25.6 0 0 1 0 36.224L892.330667 512l72.405333 72.405333a25.6 25.6 0 0 1 0 36.224l-24.106667 24.106667a25.6 25.6 0 0 1-36.224 0L832 572.330667l-72.405333 72.405333a25.6 25.6 0 0 1-36.224 0l-24.106667-24.106667a25.6 25.6 0 0 1 0-36.224L771.669333 512l-72.405333-72.405333a25.6 25.6 0 0 1 0-36.224l24.106667-24.106667a25.6 25.6 0 0 1 36.224 0z" fill="#e6e6e6" p-id="1043" data-spm-anchor-id="a313x.7781069.0.i1" class="selected"></path></svg>