<?xml version="1.0" standalone="no"?><!DOCTYPE svg PUBLIC "-//W3C//DTD SVG 1.1//EN" "http://www.w3.org/Graphics/SVG/1.1/DTD/svg11.dtd"><svg t="1579573868125" class="icon" viewBox="0 0 1383 1024" version="1.1" xmlns="http://www.w3.org/2000/svg" p-id="2896" data-spm-anchor-id="a313x.7781069.0.i3" xmlns:xlink="http://www.w3.org/1999/xlink" width="270.1171875" height="200"><defs><style type="text/css"></style></defs><path d="M168.906403 541.794043C44.425042 693.553021 0.000871 872.262809 0.000871 988.835404a34.314894 34.314894 0 0 0 25.741618 33.476085c2.83234 0.849702 5.947915 1.132936 8.780255 1.132937a35.251745 35.251745 0 0 0 30.262468-17.582298c176.258723-311.448511 508.699234-327.908766 725.700085-328.769362v225.51966c0 13.333787 7.636426 25.817872 19.804596 31.482553s26.591319 3.97617 36.776851-4.542639l523.982979-434.557276A34.674383 34.674383 0 0 0 1383.490233 468.327489c0-10.490553-4.531745-20.131404-12.734638-26.65668L847.349978 8.518809c-10.457872-8.497021-24.619574-10.490553-36.776851-4.531745a34.467404 34.467404 0 0 0-19.804596 31.482553v226.369362c-333.279319 12.189957-521.706213 157.706894-621.862128 279.965957z m656.667234-211.608511a34.707064 34.707064 0 0 0 34.227745-34.881362V108.93617l434.56817 359.391319-434.56817 360.535149V642.494638a35.295319 35.295319 0 0 0-10.185532-24.674042 34.619915 34.619915 0 0 0-24.619574-10.218213c-201.717106 0-522.555915 0-737.28 245.651064 54.03234-213.874383 239.910128-518.242043 737.846468-523.067915z" fill="#dbdbdb" p-id="2897" data-spm-anchor-id="a313x.7781069.0.i4" class="selected"></path></svg>