<?xml version="1.0" standalone="no"?><!DOCTYPE svg PUBLIC "-//W3C//DTD SVG 1.1//EN" "http://www.w3.org/Graphics/SVG/1.1/DTD/svg11.dtd"><svg t="1585377199117" class="icon" viewBox="0 0 1024 1024" version="1.1" xmlns="http://www.w3.org/2000/svg" p-id="11646" data-spm-anchor-id="a313x.7781069.0.i0" width="64" height="64" xmlns:xlink="http://www.w3.org/1999/xlink"><defs><style type="text/css"></style></defs><path d="M716.8 333.1072V757.76a143.36 143.36 0 1 1-81.92-129.55648V163.84a40.96 40.96 0 0 1 53.37088-39.03488l86.016 24.576A182.0672 182.0672 0 0 1 901.12 322.84672v62.23872a20.48 20.48 0 0 1-27.89376 19.08736L716.8 333.1072zM163.84 245.76h327.68a40.96 40.96 0 1 1 0 81.92H163.84a40.96 40.96 0 1 1 0-81.92z m0 143.36h327.68a40.96 40.96 0 1 1 0 81.92H163.84a40.96 40.96 0 1 1 0-81.92z m0 143.36h225.28a40.96 40.96 0 1 1 0 81.92H163.84a40.96 40.96 0 1 1 0-81.92z" p-id="11647" data-spm-anchor-id="a313x.7781069.0.i1" class="selected" fill="#ffffff"></path></svg>