<?xml version="1.0" standalone="no"?><!DOCTYPE svg PUBLIC "-//W3C//DTD SVG 1.1//EN" "http://www.w3.org/Graphics/SVG/1.1/DTD/svg11.dtd"><svg t="1579573851408" class="icon" viewBox="0 0 1383 1024" version="1.1" xmlns="http://www.w3.org/2000/svg" p-id="2478" xmlns:xlink="http://www.w3.org/1999/xlink" width="270.1171875" height="200"><defs><style type="text/css"></style></defs><path d="M1214.867064 541.881191c-100.155915-122.259064-288.866043-267.765106-621.578894-280.260085V35.262638c0-13.322894-7.636426-25.817872-19.804596-31.482553s-26.591319-3.965277-36.776851 4.542638l-523.982978 433.130213A34.946723 34.946723 0 0 0 0 468.142298c0 10.490553 4.531745 20.131404 12.451404 26.656681l523.972085 434.851404c10.457872 8.497021 24.619574 10.490553 36.776851 4.531745a34.467404 34.467404 0 0 0 19.804596-31.482554v-225.497872c217.284085 0.838809 549.430468 17.004936 725.700085 328.747575a34.565447 34.565447 0 0 0 30.262468 17.593191c2.83234 0 5.947915-0.294128 8.780256-1.14383A34.554553 34.554553 0 0 0 1383.489362 988.922553c0.283234-116.583489-44.140936-294.999149-168.622298-447.041362z m-656.384 65.797447a34.805106 34.805106 0 0 0-34.794213 34.892256v186.368L89.403915 468.414638l434.56817-359.402212v186.368a34.892255 34.892255 0 0 0 34.238638 34.892255c497.947234 4.814979 683.530894 309.182638 737.574128 523.057021-214.451745-245.356936-535.573787-245.651064-737.301787-245.651064z" fill="#cdcdcd" p-id="2479" data-spm-anchor-id="a313x.7781069.0.i0" class="selected"></path></svg>