<?xml version="1.0" standalone="no"?><!DOCTYPE svg PUBLIC "-//W3C//DTD SVG 1.1//EN" "http://www.w3.org/Graphics/SVG/1.1/DTD/svg11.dtd"><svg t="1579939072317" class="icon" viewBox="0 0 1024 1024" version="1.1" xmlns="http://www.w3.org/2000/svg" p-id="1259" xmlns:xlink="http://www.w3.org/1999/xlink" width="200" height="200"><defs><style type="text/css"></style></defs><path d="M680 260.352L450.112 658.56l-181.12-104.512 229.952-398.272z" fill="#00FFFF" p-id="1260"></path><path d="M531.392 607.616l-38.784-22.4-42.432 73.408-47.04-27.072L632.96 233.216l47.04 27.136-43.264 74.944 38.784 22.4 54.464-94.336a22.4 22.4 0 0 0-8.192-30.592L501.952 105.792a22.592 22.592 0 0 0-30.656 8.192L219.072 551.04a21.952 21.952 0 0 0-2.752 9.856l-0.384-0.192 3.2 226.752 0.448 0.256a33.92 33.92 0 0 0 16.64 32.384 33.92 33.92 0 0 0 36.352-1.728l0.384 0.256 198.016-110.592-0.384-0.192a22.144 22.144 0 0 0 7.168-7.232l53.632-92.992z m33.984-413.44l48.192 27.84-229.888 398.336-48.128-27.776 229.824-398.4z m-66.432-38.336l47.04 27.2L316.16 581.376l-47.104-27.328 229.888-398.208z m-195.072 594.944l-41.664-24.192-0.448-124.928 149.76 86.528-107.648 62.592z" fill="" p-id="1261"></path><path d="M585.28 514.112l-38.784-22.4 54.336-94.08 38.784 22.4z" fill="" p-id="1262"></path><path d="M655.424 347.712m-22.4 0a22.4 22.4 0 1 0 44.8 0 22.4 22.4 0 1 0-44.8 0Z" fill="" p-id="1263"></path><path d="M620.16 408.832m-22.4 0a22.4 22.4 0 1 0 44.8 0 22.4 22.4 0 1 0-44.8 0Z" fill="" p-id="1264"></path><path d="M512.832 594.944m-22.4 0a22.4 22.4 0 1 0 44.8 0 22.4 22.4 0 1 0-44.8 0Z" fill="" p-id="1265"></path><path d="M565.824 502.912m-22.4 0a22.4 22.4 0 1 0 44.8 0 22.4 22.4 0 1 0-44.8 0Z" fill="" p-id="1266"></path><path d="M99.584 906.88m-22.4 0a22.4 22.4 0 1 0 44.8 0 22.4 22.4 0 1 0-44.8 0Z" fill="" p-id="1267"></path><path d="M950.4 906.944c0 12.288-10.048 22.4-22.4 22.4H188.928a22.464 22.464 0 0 1-22.4-22.4v-0.064c0-12.288 10.112-22.4 22.4-22.4H928c12.288 0 22.4 10.112 22.4 22.464zM950.4 811.328c0 12.288-10.048 22.4-22.4 22.4H496.96a22.464 22.464 0 0 1-22.4-22.4v-0.064c0-12.288 10.112-22.4 22.4-22.4H928c12.288 0 22.4 10.048 22.4 22.464z" fill="" p-id="1268"></path></svg>