<?xml version="1.0" standalone="no"?><!DOCTYPE svg PUBLIC "-//W3C//DTD SVG 1.1//EN" "http://www.w3.org/Graphics/SVG/1.1/DTD/svg11.dtd"><svg t="1585377821590" class="icon" viewBox="0 0 1024 1024" version="1.1" xmlns="http://www.w3.org/2000/svg" p-id="1270" xmlns:xlink="http://www.w3.org/1999/xlink" width="64" height="64"><defs><style type="text/css"></style></defs><path d="M635.477333 177.92a42.666667 42.666667 0 0 1 4.522667 19.114667v629.930666a42.666667 42.666667 0 0 1-61.738667 38.144L298.666667 725.333333V298.666667l279.594666-139.776a42.666667 42.666667 0 0 1 57.216 19.072zM256 298.666667v426.666666H128a42.666667 42.666667 0 0 1-42.666667-42.666666V341.333333a42.666667 42.666667 0 0 1 42.666667-42.666666h128z m725.333333 213.333333c0 105.002667-35.498667 198.784-106.453333 281.301333a25.6 25.6 0 0 1-37.546667 1.408l-23.168-23.210666a25.6 25.6 0 0 1-0.597333-35.541334C868.522667 677.077333 896 602.410667 896 512c0-90.410667-27.477333-165.034667-82.389333-223.914667a25.6 25.6 0 0 1 0.597333-35.541333l23.168-23.210667a25.6 25.6 0 0 1 37.504 1.408C945.834667 313.173333 981.333333 406.954667 981.333333 512z m-170.666666 0c0 61.44-18.688 114.901333-56.021334 160.256a25.6 25.6 0 0 1-37.888 1.834667l-25.173333-25.173334a25.6 25.6 0 0 1-2.474667-33.28c24.149333-32.768 36.224-67.328 36.224-103.637333 0-36.309333-12.074667-70.826667-36.181333-103.637333a25.6 25.6 0 0 1 2.517333-33.28l25.173334-25.173334a25.6 25.6 0 0 1 37.845333 1.877334C792.021333 397.141333 810.666667 450.517333 810.666667 512z" fill="#ffffff" p-id="1271"></path></svg>